<svg width="160" height="40" viewBox="0 0 160 40" fill="none" xmlns="http://www.w3.org/2000/svg">
<path d="M52.3466 30H45.6435V11.0909H52.402C54.304 11.0909 55.9413 11.4695 57.3139 12.2266C58.6866 12.9775 59.7422 14.0578 60.4808 15.4673C61.2256 16.8769 61.598 18.5634 61.598 20.527C61.598 22.4967 61.2256 24.1894 60.4808 25.6051C59.7422 27.0208 58.6804 28.1072 57.2955 28.8643C55.9167 29.6214 54.267 30 52.3466 30ZM49.6413 26.5746H52.1804C53.3622 26.5746 54.3563 26.3653 55.1626 25.9467C55.9751 25.522 56.5845 24.8665 56.9908 23.9801C57.4032 23.0876 57.6094 21.9366 57.6094 20.527C57.6094 19.1297 57.4032 17.9879 56.9908 17.1016C56.5845 16.2152 55.9782 15.5627 55.1719 15.1442C54.3655 14.7256 53.3714 14.5163 52.1896 14.5163H49.6413V26.5746ZM70.9487 30.277C69.4899 30.277 68.2342 29.9815 67.1816 29.3906C66.1352 28.7936 65.3289 27.9503 64.7626 26.8608C64.1963 25.7652 63.9132 24.4695 63.9132 22.9737C63.9132 21.5149 64.1963 20.2346 64.7626 19.1328C65.3289 18.031 66.126 17.1723 67.1539 16.5568C68.188 15.9413 69.4006 15.6335 70.7917 15.6335C71.7273 15.6335 72.5983 15.7843 73.4047 16.0859C74.2172 16.3814 74.925 16.8277 75.5282 17.4247C76.1376 18.0218 76.6116 18.7727 76.9501 19.6776C77.2886 20.5762 77.4579 21.6288 77.4579 22.8352V23.9155H65.4828V21.478H73.7555C73.7555 20.9117 73.6324 20.41 73.3862 19.973C73.14 19.536 72.7984 19.1944 72.3613 18.9482C71.9305 18.6958 71.4288 18.5696 70.8564 18.5696C70.2593 18.5696 69.7299 18.7081 69.2683 18.9851C68.8128 19.2559 68.4558 19.6222 68.1973 20.0838C67.9387 20.5393 67.8064 21.0471 67.8002 21.6072V23.9247C67.8002 24.6264 67.9295 25.2327 68.188 25.7436C68.4527 26.2545 68.8251 26.6484 69.3052 26.9254C69.7853 27.2024 70.3547 27.3409 71.0133 27.3409C71.4503 27.3409 71.8504 27.2794 72.2136 27.1562C72.5768 27.0331 72.8876 26.8485 73.1461 26.6023C73.4047 26.3561 73.6016 26.0545 73.737 25.6974L77.3748 25.9375C77.1902 26.8116 76.8116 27.5748 76.2392 28.2273C75.6729 28.8736 74.9404 29.3783 74.0417 29.7415C73.1492 30.0985 72.1182 30.277 70.9487 30.277ZM92.8654 15.8182L87.9073 30H83.4755L78.5174 15.8182H82.6722L85.6175 25.9652H85.7653L88.7013 15.8182H92.8654Z" fill="white"/>
<path d="M94.9521 30V11.0909H102.412C103.846 11.0909 105.068 11.3648 106.078 11.9126C107.087 12.4543 107.857 13.2083 108.386 14.1747C108.922 15.1349 109.189 16.2429 109.189 17.4986C109.189 18.7543 108.918 19.8622 108.377 20.8224C107.835 21.7827 107.05 22.5305 106.022 23.0661C105.001 23.6016 103.763 23.8693 102.311 23.8693H97.5558V20.6655H101.664C102.434 20.6655 103.068 20.5331 103.566 20.2685C104.071 19.9976 104.447 19.6252 104.693 19.1513C104.945 18.6712 105.071 18.1203 105.071 17.4986C105.071 16.8707 104.945 16.3229 104.693 15.8551C104.447 15.3812 104.071 15.0149 103.566 14.7564C103.062 14.4917 102.422 14.3594 101.646 14.3594H98.9499V30H94.9521ZM111.712 30V15.8182H115.525V18.2926H115.673C115.932 17.4124 116.366 16.7476 116.975 16.2983C117.584 15.8428 118.286 15.6151 119.08 15.6151C119.277 15.6151 119.489 15.6274 119.717 15.652C119.945 15.6766 120.145 15.7105 120.317 15.7536V19.2436C120.133 19.1882 119.877 19.139 119.551 19.0959C119.225 19.0528 118.926 19.0312 118.655 19.0312C118.077 19.0312 117.56 19.1574 117.104 19.4098C116.655 19.656 116.298 20.0007 116.033 20.4439C115.775 20.8871 115.645 21.398 115.645 21.9766V30H111.712ZM128.154 30.277C126.695 30.277 125.439 29.9815 124.387 29.3906C123.34 28.7936 122.534 27.9503 121.968 26.8608C121.401 25.7652 121.118 24.4695 121.118 22.9737C121.118 21.5149 121.401 20.2346 121.968 19.1328C122.534 18.031 123.331 17.1723 124.359 16.5568C125.393 15.9413 126.606 15.6335 127.997 15.6335C128.932 15.6335 129.803 15.7843 130.61 16.0859C131.422 16.3814 132.13 16.8277 132.733 17.4247C133.343 18.0218 133.817 18.7727 134.155 19.6776C134.494 20.5762 134.663 21.6288 134.663 22.8352V23.9155H122.688V21.478H130.961C130.961 20.9117 130.837 20.41 130.591 19.973C130.345 19.536 130.003 19.1944 129.566 18.9482C129.136 18.6958 128.634 18.5696 128.061 18.5696C127.464 18.5696 126.935 18.7081 126.473 18.9851C126.018 19.2559 125.661 19.6222 125.402 20.0838C125.144 20.5393 125.011 21.0471 125.005 21.6072V23.9247C125.005 24.6264 125.135 25.2327 125.393 25.7436C125.658 26.2545 126.03 26.6484 126.51 26.9254C126.99 27.2024 127.56 27.3409 128.218 27.3409C128.655 27.3409 129.056 27.2794 129.419 27.1562C129.782 27.0331 130.093 26.8485 130.351 26.6023C130.61 26.3561 130.807 26.0545 130.942 25.6974L134.58 25.9375C134.395 26.8116 134.017 27.5748 133.444 28.2273C132.878 28.8736 132.145 29.3783 131.247 29.7415C130.354 30.0985 129.323 30.277 128.154 30.277ZM137.23 35.3182V15.8182H141.108V18.2003H141.283C141.455 17.8187 141.705 17.4309 142.031 17.0369C142.363 16.6368 142.794 16.3045 143.324 16.0398C143.859 15.7689 144.524 15.6335 145.318 15.6335C146.352 15.6335 147.306 15.9044 148.18 16.446C149.054 16.9815 149.753 17.791 150.276 18.8743C150.799 19.9515 151.061 21.3026 151.061 22.9276C151.061 24.5095 150.805 25.8452 150.294 26.9347C149.79 28.018 149.1 28.8397 148.226 29.3999C147.358 29.9538 146.386 30.2308 145.309 30.2308C144.545 30.2308 143.896 30.1046 143.36 29.8523C142.831 29.5999 142.397 29.2829 142.059 28.9013C141.72 28.5135 141.462 28.1226 141.283 27.7287H141.163V35.3182H137.23ZM141.08 22.9091C141.08 23.7524 141.197 24.4879 141.431 25.1158C141.665 25.7436 142.003 26.233 142.446 26.5838C142.89 26.9285 143.428 27.1009 144.062 27.1009C144.702 27.1009 145.244 26.9254 145.687 26.5746C146.13 26.2176 146.466 25.7251 146.694 25.0973C146.927 24.4633 147.044 23.7339 147.044 22.9091C147.044 22.0904 146.931 21.3703 146.703 20.7486C146.475 20.1269 146.14 19.6406 145.696 19.2898C145.253 18.9389 144.708 18.7635 144.062 18.7635C143.422 18.7635 142.88 18.9328 142.437 19.2713C142 19.6098 141.665 20.09 141.431 20.7116C141.197 21.3333 141.08 22.0658 141.08 22.9091Z" fill="#3B82F6"/>
<rect y="3" width="34" height="34" rx="7" fill="#3B82F6"/>
<path d="M27 13L13.6667 26.75L7 19.875" stroke="white" stroke-width="3" stroke-linecap="round" stroke-linejoin="round"/>
</svg>
